<?xml version="1.0" standalone="no"?>
<!DOCTYPE svg PUBLIC "-//W3C//DTD SVG 20010904//EN"
 "http://www.w3.org/TR/2001/REC-SVG-20010904/DTD/svg10.dtd">
<svg version="1.0" xmlns="http://www.w3.org/2000/svg"
 width="300.000000pt" height="168.000000pt" viewBox="0 0 300.000000 168.000000"
 preserveAspectRatio="xMidYMid meet">

<g transform="translate(0.000000,168.000000) scale(0.100000,-0.100000)"
fill="#000000" stroke="none">
<path d="M0 1155 l0 -525 28 14 c15 8 52 30 82 50 30 20 58 36 63 36 13 0 61
38 113 88 24 23 50 42 56 42 14 1 58 34 58 44 0 3 -9 6 -20 6 -13 0 -21 9 -26
28 -10 49 -23 72 -41 72 -19 0 -46 33 -36 44 3 3 14 1 25 -5 10 -6 28 -7 40
-3 21 6 21 7 -5 21 -29 15 -35 29 -15 36 8 2 -2 13 -22 25 -37 23 -50 22 -30
-3 22 -26 -15 -18 -73 15 -42 25 -46 30 -22 25 27 -6 25 -3 -17 24 -58 37 -65
49 -42 66 11 8 15 15 11 15 -5 0 -2 7 6 15 14 13 19 13 51 0 19 -8 58 -15 87
-15 l51 0 -47 46 c-46 44 -47 47 -41 91 7 54 24 81 39 61 6 -10 7 -9 4 4 -7
21 8 33 55 46 33 9 40 8 62 -15 14 -13 32 -47 42 -75 10 -30 20 -46 25 -41 6
6 -1 37 -16 78 -14 37 -24 74 -21 82 3 7 21 21 41 30 38 18 42 33 23 76 l-13
27 -238 0 -237 0 0 -525z m250 -85 c0 -5 -5 -10 -11 -10 -5 0 -7 5 -4 10 3 6
8 10 11 10 2 0 4 -4 4 -10z m-210 -401 c0 -5 -4 -9 -10 -9 -5 0 -10 7 -10 16
0 8 5 12 10 9 6 -3 10 -10 10 -16z"/>
<path d="M1321 1645 c-1 -22 -4 -50 -7 -62 -5 -16 -2 -23 8 -23 12 0 14 11 11
53 -6 68 -11 82 -12 32z"/>
<path d="M1390 1660 c6 -11 14 -20 18 -20 10 0 42 -69 62 -134 l15 -50 18 27
c16 25 16 29 2 43 -8 8 -15 28 -15 42 0 19 -7 30 -22 37 -16 7 -24 20 -26 43
-3 28 -7 32 -33 32 -27 0 -29 -2 -19 -20z"/>
<path d="M1520 1665 c0 -8 9 -24 20 -35 11 -11 20 -27 20 -35 0 -8 9 -15 20
-15 11 0 20 5 20 10 0 18 29 11 40 -9 17 -33 12 -44 -15 -37 -19 5 -25 2 -25
-9 0 -13 -4 -14 -20 -5 -11 6 -21 7 -21 3 -1 -4 -2 -12 -3 -18 -4 -28 -19 -55
-27 -50 -5 3 -6 -1 -3 -9 5 -12 -1 -16 -24 -16 l-31 0 19 -43 c16 -37 21 -73
19 -152 0 -11 4 -42 10 -69 11 -48 5 -126 -9 -126 -4 0 -5 -11 -2 -25 2 -14 8
-23 12 -20 13 8 21 -44 10 -65 -5 -10 -10 -28 -10 -39 0 -12 -5 -21 -11 -21
-6 0 -9 -8 -7 -17 2 -14 11 -17 36 -15 24 3 32 0 32 -12 0 -13 -12 -16 -62
-16 -34 0 -58 -3 -55 -6 3 -4 -3 -18 -13 -32 -11 -13 -20 -38 -20 -53 0 -26
-3 -29 -32 -29 -18 0 -60 -14 -93 -30 -37 -18 -76 -30 -102 -30 -43 0 -43 0
-43 36 0 19 5 45 11 57 17 31 110 171 119 177 8 6 40 98 40 117 0 7 -9 13 -20
13 -14 0 -20 7 -20 23 -1 31 -27 64 -41 50 -8 -8 -8 -17 1 -32 9 -18 7 -31
-15 -74 -14 -29 -43 -77 -65 -107 -26 -35 -39 -63 -36 -77 2 -13 0 -23 -5 -23
-4 0 -11 -17 -15 -37 -4 -21 -11 -46 -15 -55 -11 -21 -1 -48 17 -48 23 0 17
-79 -11 -135 -22 -46 -23 -51 -8 -62 28 -22 44 -15 60 27 9 22 21 40 27 40 6
0 17 12 24 27 7 16 19 37 27 47 13 18 16 18 32 4 10 -9 38 -25 63 -37 44 -20
90 -54 90 -65 0 -3 -7 -6 -15 -6 -8 0 -19 -9 -25 -19 -6 -12 -26 -22 -50 -26
-43 -7 -54 -29 -19 -40 12 -4 18 -12 15 -21 -3 -8 1 -14 10 -14 9 0 12 5 8 12
-4 7 -3 8 4 4 7 -4 12 -12 12 -17 0 -6 7 -17 15 -26 9 -9 15 -29 13 -49 -1
-18 1 -36 5 -40 4 -4 6 26 6 67 -1 41 -3 66 -6 57 -5 -21 -23 -24 -23 -4 0 15
21 26 51 26 17 0 19 -8 19 -79 0 -73 2 -80 19 -78 11 1 23 10 26 22 6 20 6 20
14 0 7 -16 9 -14 14 14 4 19 7 51 7 72 l0 39 44 0 c52 0 76 -19 76 -60 0 -31
-23 -50 -58 -50 -20 0 -38 -45 -22 -55 5 -3 66 -10 136 -15 71 -6 137 -12 147
-15 11 -2 25 -1 33 2 17 6 19 43 3 43 -6 0 -9 6 -6 14 3 8 2 16 -3 18 -5 2
-10 15 -12 30 -5 35 -21 51 -18 18 5 -61 0 -80 -20 -80 -18 0 -20 7 -20 75 0
68 2 75 20 75 22 0 25 7 11 29 -6 9 -11 10 -15 2 -4 -6 -12 -9 -17 -6 -5 4 -9
0 -9 -7 -1 -9 -3 -9 -9 2 -10 19 -2 90 11 90 19 0 48 -21 43 -31 -13 -21 13
-7 40 21 22 23 29 39 27 60 -2 17 4 44 12 62 17 34 22 98 7 98 -9 0 -28 148
-23 184 1 10 -2 24 -7 30 -5 6 -12 27 -16 47 -6 34 -4 38 23 50 17 7 28 17 26
21 -3 5 4 20 15 34 16 20 18 29 9 43 -7 11 -19 16 -30 13 -10 -2 -18 1 -18 7
0 10 14 15 33 12 17 -3 5 27 -15 38 -23 11 -23 11 2 7 23 -5 23 -4 8 8 -24 18
-23 42 3 60 16 11 19 20 14 33 -5 10 -9 33 -11 52 l-3 34 20 -22 c20 -21 26
-37 28 -68 1 -7 7 -13 14 -13 17 0 10 67 -9 95 -21 30 -18 81 7 98 15 11 20
23 17 48 -3 29 -7 34 -26 32 -28 -4 -62 13 -62 30 0 8 4 6 10 -3 8 -12 11 -13
19 -1 5 8 16 11 29 7 19 -6 20 -4 12 21 -20 68 -1 63 -241 63 -188 0 -219 -2
-219 -15z m370 -15 c0 -5 -4 -10 -10 -10 -5 0 -10 5 -10 10 0 6 5 10 10 10 6
0 10 -4 10 -10z m0 -54 c0 -8 -7 -19 -15 -26 -12 -10 -16 -9 -21 4 -7 18 13
49 27 40 5 -3 9 -11 9 -18z m-30 -110 c0 -3 -4 -8 -10 -11 -5 -3 -10 -1 -10 4
0 6 5 11 10 11 6 0 10 -2 10 -4z m40 -191 c0 -8 -7 -15 -15 -15 -16 0 -20 12
-8 23 11 12 23 8 23 -8z m-256 -110 c3 -8 12 -15 21 -15 8 0 15 -5 15 -10 0
-6 9 -30 20 -52 17 -35 18 -44 6 -57 -31 -37 -30 -94 2 -89 12 2 18 -6 20 -29
3 -31 -8 -41 -56 -49 -8 -1 -22 -10 -33 -20 -10 -9 -19 -12 -19 -6 0 6 5 14
11 18 15 9 2 189 -16 224 -12 24 -12 45 1 88 5 17 21 15 28 -3z m-84 -411 c0
-8 -7 -14 -15 -14 -15 0 -21 21 -9 33 10 9 24 -2 24 -19z m175 -44 c0 -13 -6
-25 -12 -27 -9 -3 -13 6 -13 27 0 21 4 30 13 28 6 -3 12 -15 12 -28z m-285
-80 c0 -5 -5 -10 -11 -10 -5 0 -7 5 -4 10 3 6 8 10 11 10 2 0 4 -4 4 -10z
m-45 -218 c-3 -3 -11 0 -18 7 -9 10 -8 11 6 5 10 -3 15 -9 12 -12z m349 -48
c19 -18 20 -34 4 -69 -9 -19 -9 -28 0 -37 7 -7 12 -17 12 -24 0 -19 -37 -4
-55 22 -20 31 -35 31 -35 -1 0 -18 -5 -25 -20 -25 -18 0 -20 7 -20 75 l0 75
49 0 c32 0 55 -6 65 -16z"/>
<path d="M1680 351 c0 -15 6 -21 21 -21 25 0 22 33 -4 38 -12 2 -17 -3 -17
-17z"/>
<path d="M2060 1664 c0 -10 7 -14 22 -12 32 5 35 28 4 28 -17 0 -26 -5 -26
-16z"/>
<path d="M2182 1641 c-7 -21 -12 -48 -12 -60 0 -12 -9 -47 -20 -79 -15 -43
-19 -70 -14 -109 3 -30 2 -59 -5 -70 -9 -16 -10 -15 -11 10 0 29 -20 39 -20
10 0 -10 -3 -29 -7 -42 -5 -21 -3 -23 13 -18 17 6 17 6 3 -6 -10 -7 -18 -31
-20 -56 -3 -37 -1 -44 15 -47 11 -1 46 -16 78 -33 58 -31 58 -31 58 -8 0 12
-9 72 -19 132 -32 186 -35 228 -17 289 10 33 30 69 50 90 l33 36 -47 0 c-46 0
-47 -1 -58 -39z"/>
<path d="M2970 1655 c13 -14 25 -25 27 -25 2 0 3 11 3 25 0 20 -5 25 -27 25
l-26 0 23 -25z"/>
<path d="M1000 1640 c0 -13 45 -24 66 -16 8 3 12 10 9 16 -8 13 -75 13 -75 0z"/>
<path d="M459 1534 c-9 -11 -9 -24 2 -57 7 -23 13 -48 12 -54 0 -7 3 -10 8 -7
5 3 9 -1 9 -8 0 -7 7 -21 15 -31 13 -18 14 -18 24 2 17 31 -13 157 -39 164
-11 3 -25 -1 -31 -9z"/>
<path d="M1252 1458 c-9 -9 -9 -15 1 -26 10 -13 9 -14 -8 -5 -32 17 -102 25
-146 18 -36 -6 -38 -8 -23 -20 16 -11 14 -13 -22 -19 -51 -9 -85 -33 -65 -46
10 -6 19 -3 26 7 13 17 51 11 41 -6 -3 -5 10 -23 29 -40 19 -17 35 -37 35 -46
0 -10 10 -15 35 -15 28 0 37 -5 49 -27 12 -24 12 -30 0 -40 -7 -7 -18 -13 -23
-13 -6 0 -15 -9 -21 -19 -10 -20 -59 -36 -97 -32 -13 1 -23 -2 -23 -8 0 -21
105 -17 127 5 8 8 21 14 28 14 8 0 33 18 56 40 23 22 45 40 49 40 7 0 60 75
60 85 0 3 -7 5 -15 5 -8 0 -15 7 -15 15 0 9 6 12 15 9 12 -5 15 3 15 39 0 44
-2 46 -40 63 -22 10 -40 21 -40 26 0 12 -14 10 -28 -4z m-152 -88 c0 -5 -7
-10 -15 -10 -8 0 -15 5 -15 10 0 6 7 10 15 10 8 0 15 -4 15 -10z"/>
<path d="M950 1445 c-14 -17 -10 -47 8 -53 7 -2 12 5 12 17 0 12 7 24 15 27
17 7 10 24 -9 24 -8 0 -19 -7 -26 -15z"/>
<path d="M421 1317 c-15 -17 -21 -36 -21 -71 0 -30 -8 -61 -22 -86 l-23 -39
37 -37 c21 -20 35 -41 32 -45 -3 -5 4 -9 15 -9 20 0 46 -20 53 -42 4 -10 8
-10 21 0 13 11 14 17 4 32 -16 27 -1 37 22 16 21 -19 41 -14 41 10 0 8 -4 13
-9 9 -5 -3 -12 -1 -16 5 -3 5 -15 10 -25 10 -15 0 -18 6 -15 30 2 17 0 28 -3
26 -4 -2 -15 9 -25 25 -17 30 -17 30 6 24 12 -4 34 -15 50 -26 l27 -20 0 28
c0 15 -7 48 -14 73 -11 35 -16 41 -21 27 -4 -10 -5 -31 -2 -47 5 -22 3 -28 -8
-24 -7 3 -11 12 -8 20 5 14 -6 18 -37 15 -11 -1 -10 2 4 13 18 14 15 36 -5 36
-13 0 -43 29 -37 36 7 7 38 -7 38 -17 0 -5 7 -9 15 -9 8 0 15 -5 15 -11 0 -5
5 -7 11 -4 13 9 -8 33 -49 57 -28 17 -30 17 -51 -5z"/>
<path d="M558 1291 c3 -9 11 -25 19 -36 7 -11 13 -27 13 -36 0 -9 7 -20 16
-23 13 -5 15 3 12 46 -3 50 -5 53 -35 59 -26 5 -30 3 -25 -10z"/>
<path d="M1980 1260 c0 -5 5 -10 10 -10 6 0 10 5 10 10 0 6 -4 10 -10 10 -5 0
-10 -4 -10 -10z"/>
<path d="M1970 1188 c0 -7 -3 -23 -6 -35 -5 -18 -3 -21 16 -16 13 4 19 11 16
20 -3 8 -6 21 -6 29 0 8 -4 14 -10 14 -5 0 -10 -6 -10 -12z"/>
<path d="M637 1139 c4 -13 8 -18 11 -10 2 7 -1 18 -6 23 -8 8 -9 4 -5 -13z"/>
<path d="M2079 1102 c-3 -67 4 -115 22 -133 10 -10 24 -17 31 -15 7 1 10 1 6
-1 -14 -8 -8 -25 6 -20 7 3 32 -5 55 -18 22 -13 41 -20 41 -16 0 18 -26 61
-37 61 -7 0 -13 7 -13 16 0 17 -39 72 -82 115 -22 22 -28 24 -29 11z"/>
<path d="M385 1050 c3 -5 11 -10 16 -10 6 0 7 5 4 10 -3 6 -11 10 -16 10 -6 0
-7 -4 -4 -10z"/>
<path d="M1948 1046 c-15 -11 -16 -15 -3 -32 12 -17 14 -18 20 -2 4 9 5 24 3
32 -2 12 -6 12 -20 2z"/>
<path d="M1356 1007 c3 -10 9 -15 12 -12 3 3 0 11 -7 18 -10 9 -11 8 -5 -6z"/>
<path d="M2070 953 c-1 -5 -7 -30 -14 -57 l-13 -50 58 -55 c52 -51 57 -59 53
-91 -2 -19 -9 -39 -14 -44 -6 -6 -10 -19 -10 -31 0 -12 -5 -26 -11 -32 -16
-16 -2 -52 69 -173 55 -94 61 -101 71 -81 8 15 21 21 44 21 42 0 56 -10 67
-46 l8 -29 1 30 c1 26 5 30 31 31 24 1 28 -1 19 -12 -6 -8 -8 -14 -5 -14 12 0
-28 -36 -65 -58 -20 -12 -44 -22 -53 -22 -9 0 -16 -3 -16 -6 0 -18 49 -118 84
-171 l41 -62 293 -1 292 0 0 48 c0 46 -1 48 -37 60 -50 17 -115 36 -188 56
-33 9 -117 44 -187 78 l-128 61 0 37 c0 57 -27 134 -79 224 -39 69 -134 199
-176 242 -6 7 -33 44 -60 83 -42 62 -74 88 -75 64z m87 -423 c6 -16 8 -30 4
-30 -3 0 -12 14 -18 30 -6 17 -8 30 -4 30 3 0 12 -13 18 -30z m43 -59 c12 -24
13 -31 2 -31 -5 0 -14 11 -20 25 -14 29 2 34 18 6z m207 -43 c-9 -6 -9 -10 1
-20 9 -9 12 -9 12 1 0 7 5 9 10 6 12 -7 12 -16 2 -33 -11 -17 -45 -4 -38 14 3
8 -2 14 -12 15 -10 0 -12 3 -5 6 9 3 9 10 -3 28 -15 23 -5 43 16 30 6 -3 10 0
11 7 0 7 5 0 10 -17 6 -20 5 -31 -4 -37z m-173 -13 c3 -8 1 -15 -4 -15 -6 0
-10 7 -10 15 0 8 2 15 4 15 2 0 6 -7 10 -15z m146 -24 c0 -5 -7 -12 -16 -15
-14 -5 -15 -4 -4 9 14 17 20 19 20 6z"/>
<path d="M2228 873 c7 -3 16 -2 19 1 4 3 -2 6 -13 5 -11 0 -14 -3 -6 -6z"/>
<path d="M546 834 c-20 -19 -20 -34 -2 -34 8 0 17 -8 19 -17 3 -10 5 1 6 25 1
47 -1 49 -23 26z"/>
<path d="M2500 771 c0 -16 5 -33 10 -36 6 -4 10 6 10 24 0 16 -4 33 -10 36 -6
4 -10 -6 -10 -24z"/>
<path d="M2626 684 c-4 -9 -4 -19 -1 -22 2 -3 7 3 11 12 4 9 4 19 1 22 -2 3
-7 -3 -11 -12z"/>
<path d="M2472 655 c-14 -31 -16 -53 -3 -39 9 9 24 64 18 64 -2 0 -9 -11 -15
-25z"/>
<path d="M2480 481 c0 -12 6 -21 15 -21 8 0 15 4 15 9 0 5 -7 14 -15 21 -13
10 -15 9 -15 -9z"/>
<path d="M440 422 c-39 -19 -48 -39 -26 -56 13 -10 13 -13 0 -24 -11 -11 -14
-10 -14 3 0 8 -7 15 -15 15 -8 0 -19 9 -25 20 -9 16 -21 20 -65 20 -42 0 -55
3 -55 15 0 8 -4 15 -9 15 -5 0 -11 -7 -15 -15 -3 -8 -17 -15 -31 -15 -16 0
-25 -6 -25 -15 0 -8 -5 -15 -10 -15 -18 0 -70 -56 -71 -76 0 -17 -2 -16 -11 4
-13 26 -28 29 -28 5 0 -10 -3 -28 -6 -40 -5 -20 -2 -23 20 -23 31 0 32 -2 6
-40 -11 -17 -29 -43 -40 -60 -21 -31 -26 -60 -10 -60 6 0 6 -9 0 -26 -22 -58
-58 -54 540 -54 303 0 550 4 550 9 0 4 -13 35 -30 67 -16 32 -30 65 -30 72 0
6 -3 12 -8 12 -4 0 -16 20 -27 45 -19 43 -22 44 -53 39 -47 -9 -74 18 -70 70
2 31 -1 40 -18 46 -11 4 -26 15 -33 24 -7 9 -21 16 -29 16 -9 0 3 -14 26 -31
36 -26 42 -36 42 -66 0 -33 36 -123 49 -123 4 0 18 -21 31 -48 14 -26 28 -48
33 -50 4 -2 7 -8 7 -14 0 -6 -8 -4 -17 5 -10 8 -22 16 -26 16 -4 0 -20 14 -35
32 -15 17 -35 39 -46 48 -10 9 -30 27 -45 40 -22 19 -27 20 -29 7 -2 -9 -12
-16 -23 -16 -17 0 -19 8 -20 73 -1 41 -4 62 -7 49 -8 -28 -16 -28 -62 1 -19
12 -38 23 -42 25 -4 2 -8 -21 -10 -50 -2 -41 -7 -54 -20 -56 -13 -2 -18 3 -18
17 0 12 -4 21 -10 21 -5 0 -10 -4 -10 -9 0 -19 -60 -34 -96 -23 -19 5 -34 6
-34 2 0 -5 5 -10 11 -12 7 -2 0 -12 -15 -21 -32 -21 -63 -9 -72 28 -7 29 2 47
24 43 10 -1 22 1 29 5 6 4 15 3 18 -3 5 -8 11 -8 20 0 9 8 15 8 20 0 8 -12 55
-14 55 -1 0 12 -56 25 -69 17 -5 -4 -13 -1 -17 5 -4 8 -3 9 5 5 8 -6 10 -1 5
17 -9 36 4 67 27 67 14 0 19 6 17 17 -4 24 -18 25 -58 5z m240 -166 c0 -29
-24 -50 -47 -42 -12 5 -14 9 -5 18 7 7 12 20 12 30 0 11 7 18 20 18 14 0 20
-7 20 -24z m20 -36 c0 -5 -5 -10 -11 -10 -5 0 -7 5 -4 10 3 6 8 10 11 10 2 0
4 -4 4 -10z m26 -19 c-4 -5 0 -12 6 -14 8 -4 7 -6 -4 -6 -9 -1 -24 -4 -33 -8
-16 -5 -15 -4 1 15 18 21 41 31 30 13z m21 -37 c-3 -3 -12 -4 -19 -1 -8 3 -5
6 6 6 11 1 17 -2 13 -5z"/>
<path d="M1027 414 c-11 -11 47 -42 90 -49 31 -4 34 -4 15 5 -13 5 -21 13 -19
17 3 5 -11 9 -31 11 -20 1 -39 7 -42 12 -4 6 -9 7 -13 4z"/>
<path d="M2470 405 c0 -20 28 -31 43 -16 13 13 10 16 -20 25 -17 6 -23 3 -23
-9z"/>
<path d="M571 401 c-8 -5 -9 -11 -3 -15 5 -3 12 1 16 9 6 17 6 18 -13 6z"/>
<path d="M772 380 c7 -11 18 -20 25 -20 8 0 5 8 -7 20 -11 11 -22 20 -25 20
-3 0 0 -9 7 -20z"/>
<path d="M610 373 c-14 -2 -35 -9 -47 -15 -17 -8 -26 -8 -37 1 -8 7 -21 9 -28
5 -8 -5 0 -12 23 -19 18 -6 40 -23 46 -36 8 -15 13 -18 13 -8 0 8 -5 20 -11
26 -17 17 -2 33 31 33 16 0 32 5 35 10 3 6 5 9 3 9 -2 -1 -14 -4 -28 -6z"/>
<path d="M1171 367 c2 -1 15 -11 29 -22 l25 -20 -19 23 c-11 12 -24 22 -29 22
-6 0 -8 -1 -6 -3z"/>
<path d="M1550 345 c0 -27 1 -28 24 -19 28 11 13 44 -20 44 -2 0 -4 -11 -4
-25z"/>
<path d="M2297 324 c-15 -15 -7 -45 11 -42 9 2 17 12 17 22 0 20 -16 31 -28
20z"/>
<path d="M933 283 c9 -2 23 -2 30 0 6 3 -1 5 -18 5 -16 0 -22 -2 -12 -5z"/>
<path d="M1323 283 c9 -2 23 -2 30 0 6 3 -1 5 -18 5 -16 0 -22 -2 -12 -5z"/>
<path d="M400 229 c0 -5 5 -7 10 -4 6 3 10 8 10 11 0 2 -4 4 -10 4 -5 0 -10
-5 -10 -11z"/>
<path d="M1407 166 c-16 -13 -16 -14 -1 -20 10 -4 21 -1 26 6 8 10 11 10 15 1
2 -7 12 -13 21 -12 11 0 12 2 4 6 -6 2 -10 9 -6 14 3 5 1 9 -5 9 -5 0 -15 2
-23 5 -7 2 -21 -2 -31 -9z"/>
<path d="M1670 142 c0 -14 59 -24 78 -13 13 7 11 9 -8 9 -14 0 -35 3 -47 7
-14 4 -23 3 -23 -3z"/>
<path d="M1380 130 c0 -5 5 -10 10 -10 6 0 10 5 10 10 0 6 -4 10 -10 10 -5 0
-10 -4 -10 -10z"/>
<path d="M1490 129 c0 -5 -4 -8 -9 -4 -5 3 -13 0 -16 -6 -5 -6 0 -9 11 -8 11
2 25 0 31 -4 7 -5 21 -3 30 3 16 10 15 11 -4 7 -15 -4 -23 0 -23 9 0 8 -4 14
-10 14 -5 0 -10 -5 -10 -11z"/>
<path d="M1363 106 c12 -9 17 -27 17 -60 0 -25 4 -46 9 -46 11 0 2 91 -12 108
-5 6 -15 12 -21 12 -6 0 -3 -7 7 -14z"/>
<path d="M1511 74 c0 -11 3 -14 6 -6 3 7 2 16 -1 19 -3 4 -6 -2 -5 -13z"/>
<path d="M1616 81 c-4 -5 -2 -20 3 -34 6 -16 6 -28 -2 -36 -8 -8 -3 -11 19
-11 22 0 25 3 14 10 -8 5 -12 12 -8 15 3 3 13 -1 21 -10 16 -16 92 -22 83 -6
-3 4 -20 11 -38 15 -17 3 -40 14 -51 24 -10 9 -22 16 -25 14 -4 -2 -8 2 -11 9
-2 7 1 9 9 4 9 -5 11 -4 6 3 -9 14 -13 15 -20 3z"/>
<path d="M1316 73 c-9 -10 -7 -73 3 -73 18 0 29 64 12 74 -4 3 -11 3 -15 -1z"/>
<path d="M1435 69 c-4 -6 -5 -12 -2 -15 2 -3 7 2 10 11 7 17 1 20 -8 4z"/>
<path d="M1560 76 c0 -2 9 -6 20 -9 11 -3 18 -1 14 4 -5 9 -34 13 -34 5z"/>
</g>
</svg>
